HIERARCHY
ROOT ui
{
	 OFFSET 0 0 0
	 CHANNELS 3 XPosition YPosition Z Position
	 EndSite
	 {
	 OFFSET 0 -1 0
	 }
}
ROOT li
{
	 OFFSET 0 0 0
	 CHANNELS 3 XPosition YPosition Z Position
	 EndSite
	 {
	 OFFSET 0 -1 0
	 }
}
ROOT ul
{
	 OFFSET 0 0 0
	 CHANNELS 3 XPosition YPosition Z Position
	 EndSite
	 {
	 OFFSET 0 -1 0
	 }
}
ROOT ll
{
	 OFFSET 0 0 0
	 CHANNELS 3 XPosition YPosition Z Position
	 EndSite
	 {
	 OFFSET 0 -1 0
	 }
}
ROOT tt
{
	 OFFSET 0 0 0
	 CHANNELS 3 XPosition YPosition Z Position
	 EndSite
	 {
	 OFFSET 0 -1 0
	 }
}
ROOT tb
{
	 OFFSET 0 0 0
	 CHANNELS 3 XPosition YPosition Z Position
	 EndSite
	 {
	 OFFSET 0 -1 0
	 }
}
ROOT td
{
	 OFFSET 0 0 0
	 CHANNELS 3 XPosition YPosition Z Position
	 EndSite
	 {
	 OFFSET 0 -1 0
	 }
}
ROOT v
{
	 OFFSET 0 0 0
	 CHANNELS 3 XPosition YPosition Z Position
	 EndSite
	 {
	 OFFSET 0 -1 0
	 }
}
ROOT bn
{
	 OFFSET 0 0 0
	 CHANNELS 3 XPosition YPosition Z Position
	 EndSite
	 {
	 OFFSET 0 -1 0
	 }
}
MOTION
Frames: 13
Frame Time: 0.002
-0.0030922529697418213	-0.0017359130382537842	0		0.5173970336914062	-2.340816650390625	0		-1.073377197265625	-0.05395808029174805	0		-0.7046935424804688	-2.381946044921875	0		1.57968603515625	-0.5690753784179687	0		3.364653076171875	0.0497148323059082	0		4.8249814453125	0.05098600387573242	0		5.65729931640625	0.13366770935058594	0		-0.19263192749023436	5.917349609375	0		
0.03543415069580078	-0.017063901901245116	0		0.49106521606445314	-2.337651123046875	0		-1.1145767822265624	-0.05604745864868164	0		-0.7789617309570313	-2.37623193359375	0		1.581791259765625	-0.5641329956054687	0		3.35435205078125	0.04550091171264648	0		4.81589990234375	0.058241958618164065	0		5.66058837890625	0.1150162353515625	0		-0.19383221435546874	5.91571533203125	0		
-0.005404860019683838	-8.21694016456604E-4	0		0.502559814453125	-2.3432802734375	0		-1.1057279052734375	-0.05716216278076172	0		-0.7752560424804688	-2.37211962890625	0		1.620209228515625	-0.5949528198242188	0		3.3802431640625	0.04950897216796875	0		4.830552734375	0.050945938110351564	0		5.6627626953125	0.13261630249023437	0		-0.18173609924316406	5.92480029296875	0		
0.018381444931030274	-0.005889050006866455	0		0.4793200378417969	-2.335260498046875	0		-1.099707275390625	-0.05122671127319336	0		-0.7715499267578125	-2.368022216796875	0		1.621340576171875	-0.591067626953125	0		3.35439111328125	0.06546563720703125	0		4.824599609375	0.06196932601928711	0		5.65785498046875	0.1538355712890625	0		-0.33423486328125	5.8990546875	0		
0.0016099189519882201	0.00980785846710205	0		0.5199612426757813	-2.33451220703125	0		-1.077796875	-0.05360240173339844	0		-0.740050048828125	-2.375471435546875	0		1.5851278076171875	-0.554517578125	0		3.36496337890625	0.048622791290283206	0		4.8193857421875	0.056865550994873046	0		5.65120849609375	0.1316656494140625	0		-0.3370455322265625	5.89934423828125	0		
-0.008579327583312988	3.3799099922180174E-4	0		0.49163470458984376	-2.332482421875	0		-1.115756591796875	-0.05184803009033203	0		-0.7532737426757813	-2.3690751953125	0		1.5781514892578126	-0.5606036376953125	0		3.349970947265625	0.0511811408996582	0		4.81425732421875	0.052641868591308594	0		5.65051806640625	0.1349475555419922	0		-0.20631608581542968	5.918103515625	0		
3.0765900015830995E-4	-0.009520959854125977	0		0.5131619873046875	-2.340434326171875	0		-1.07969384765625	-0.05349661254882813	0		-0.7556214599609375	-2.37090625	0		1.57737109375	-0.5598670654296874	0		3.363010986328125	0.05111791229248047	0		4.8174287109375	0.06014286804199219	0		5.656970703125	0.1324840545654297	0		-0.34214404296875	5.89984765625	0		
-0.010344284057617188	9.545210003852844E-4	0		0.47392892456054686	-2.33730322265625	0		-1.110588134765625	-0.05691231918334961	0		-0.7769050903320313	-2.3714091796875	0		1.610203369140625	-0.58481201171875	0		3.346400146484375	0.06551130676269531	0		4.8207021484375	0.06852082824707031	0		5.65934814453125	0.14900628662109375	0		-0.19684043884277344	5.9293623046875	0		
0.020019954681396484	0.006650705814361572	0		0.52084521484375	-2.329789306640625	0		-1.10420703125	-0.05102605438232422	0		-0.7750823974609375	-2.369357666015625	0		1.584231201171875	-0.5487303466796875	0		3.361408935546875	0.05322625350952148	0		4.8199482421875	0.0698499526977539	0		5.65468798828125	0.16906600952148437	0		-0.38055194091796873	5.8948583984375	0		
0.00423406982421875	-0.0018500369787216187	0		0.49269866943359375	-2.328956787109375	0		-1.1188382568359374	-0.05177515411376953	0		-0.7413201293945313	-2.3748974609375	0		1.5785926513671875	-0.55509130859375	0		3.364878662109375	0.060064563751220705	0		4.81518310546875	0.06413076019287109	0		5.6547763671875	0.14543052673339843	0		-0.21492359924316407	5.919015625	0		
0.06274041748046875	-0.0017036420106887817	0		0.5145049438476562	-2.33606298828125	0		-1.0823544921875	-0.05344941711425781	0		-0.754269775390625	-2.368617431640625	0		1.581264404296875	-0.5506597290039063	0		3.355384033203125	0.062043380737304685	0		4.81466845703125	0.06522200012207031	0		5.650955078125	0.15981178283691405	0		-0.21751634216308594	5.9201826171875	0		
-0.03858195495605469	0.0022293550968170168	0		0.4885721740722656	-2.33336669921875	0		-1.1196953125	-0.05183451843261719	0		-0.7562706909179687	-2.370558837890625	0		1.5748641357421875	-0.5571290283203125	0		3.345896240234375	0.05693130493164063	0		4.81914306640625	0.05811567687988281	0		5.65485498046875	0.14423980712890624	0		-0.20373397827148437	5.93003369140625	0		
0.0719664764404297	-0.010588142395019531	0		0.5353938598632813	-2.35098876953125	0		-1.1130184326171875	-0.05701714706420898	0		-0.779189453125	-2.37316357421875	0		1.60826904296875	-0.5823532104492187	0		3.37269189453125	0.06010338592529297	0		4.80715283203125	0.07419520568847657	0		5.65987109375	0.17168089294433594	0		-0.33630831909179687	5.90839453125	0		
